<?xml version="1.0" standalone="no"?>
<!DOCTYPE svg PUBLIC "-//W3C//DTD SVG 20010904//EN"
 "http://www.w3.org/TR/2001/REC-SVG-20010904/DTD/svg10.dtd">
<svg version="1.0" xmlns="http://www.w3.org/2000/svg"
 width="512.000000pt" height="512.000000pt" viewBox="0 0 512.000000 512.000000"
 preserveAspectRatio="xMidYMid meet">
<metadata>
Created by potrace 1.14, written by Peter Selinger 2001-2017
</metadata>
<g transform="translate(0.000000,512.000000) scale(0.100000,-0.100000)"
fill="#000000" stroke="none">
<path d="M1510 5101 c-19 -10 -48 -35 -65 -55 -28 -36 -30 -44 -35 -144 l-5
-107 -380 -1 c-402 -1 -421 -3 -496 -50 -53 -33 -106 -100 -126 -158 -16 -48
-17 -188 -17 -2196 l0 -2145 32 -67 c35 -72 77 -114 152 -151 l45 -22 1639 -3
c1828 -3 1699 -7 1794 68 36 28 60 58 84 107 l33 68 1 1030 c0 573 -4 1042 -8
1057 -5 15 -22 31 -39 38 l-29 12 0 102 0 102 283 285 c156 156 296 303 311
326 71 115 62 265 -24 373 -76 96 -226 139 -346 100 -44 -14 -134 -70 -134
-83 0 -4 -3 -6 -8 -4 -4 3 -7 214 -6 469 0 478 -3 521 -41 584 -48 77 -118
129 -200 150 -17 4 -199 8 -405 8 l-375 1 -1 85 c0 47 -6 101 -13 121 -15 45
-67 96 -112 109 -21 6 -312 10 -754 10 -682 0 -722 -1 -755 -19z"/>
</g>
</svg>
